<?xml version="1.0" encoding="UTF-8" standalone="no"?>
<svg
   version="1.1"
   id="svg5400"
   height="16px"
   width="16px"
   xml:space="preserve"
   xmlns="http://www.w3.org/2000/svg"
   xmlns:svg="http://www.w3.org/2000/svg"
   xmlns:rdf="http://www.w3.org/1999/02/22-rdf-syntax-ns#"
   xmlns:cc="http://creativecommons.org/ns#"
   xmlns:dc="http://purl.org/dc/elements/1.1/"><defs
     id="defs5402" /><metadata
     id="metadata5405"><rdf:RDF><cc:Work
         rdf:about=""><dc:format>image/svg+xml</dc:format><dc:type
           rdf:resource="http://purl.org/dc/dcmitype/StillImage" /></cc:Work></rdf:RDF></metadata><g
     style="display:inline"
     id="layer2" /><path
     id="rect1004"
     style="font-variation-settings:normal;opacity:1;vector-effect:none;fill:#555761;fill-opacity:1;stroke:none;stroke-width:1;stroke-linecap:round;stroke-linejoin:miter;stroke-miterlimit:4;stroke-dasharray:none;stroke-dashoffset:0;stroke-opacity:1;-inkscape-stroke:none;stop-color:#000000;stop-opacity:1"
     d="M 3.0507812 0 C 2.9256704 0.00048169469 2.8057438 0.050275303 2.7167969 0.13867188 L 0.14453125 1.6835938 C 0.052871342 1.7742137 0.0014671255 1.8981469 0.001953125 2.0273438 L 0.001953125 3.4746094 C -0.026206847 4.1819923 0.38019864 4.6827891 0.76953125 4.859375 C 1.0969739 5.0078898 1.3951432 5.0034708 1.4863281 4.9980469 L 14.427734 4.9980469 C 14.551285 5.0045369 14.818859 4.9986775 15.095703 4.8671875 C 15.47221 4.6883615 15.860364 4.2503294 15.992188 3.5351562 C 15.997387 3.5068043 16 3.4780417 16 3.4492188 L 16 2.1132812 C 16.00001 1.9895377 15.95242 1.8705761 15.867188 1.78125 L 13.349609 0.1484375 C 13.259894 0.054040054 13.13577 0.00044089018 13.005859 0 L 3.0507812 0 z M 1 5.8574219 L 1 13 C 1 14.107996 1.8920044 15 3 15 L 13 15 C 14.107996 15 15 14.107996 15 13 L 15 5.8574219 C 14.68722 5.949079 14.35131 6 14 6 L 2 6 C 1.6486909 6 1.3127796 5.949079 1 5.8574219 z M 6 8 L 10 8 C 10.553997 8 11 8.4460018 11 9 C 11 9.5539982 10.553997 10 10 10 L 6 10 C 5.4460008 10 5 9.5539982 5 9 C 5 8.4460018 5.4460008 8 6 8 z " /></svg>
